<?xml version="1.0"?>
<svg xmlns="http://www.w3.org/2000/svg" viewBox="0 0 64 64" width="512" height="512"><g id="Email_maketing" data-name="Email maketing"><path d="M55.538,21.975,50.7,3.906a2,2,0,0,0-2.45-1.415l-2.722.73a1.982,1.982,0,0,0-.645.3L39.025,7.71l-5.06-4.336a3.015,3.015,0,0,0-3.928,0l-27,23.27A3,3,0,0,0,2,28.92V59a3,3,0,0,0,3,3H59a3,3,0,0,0,3-3V28.92a3,3,0,0,0-1.038-2.278Zm4.441,37.131L41.727,44.5,60,29.877V59A.946.946,0,0,1,59.979,59.106ZM4,59V29.876L22.278,44.5,4.021,59.106A.9.9,0,0,1,4,59ZM31.372,39.783a1.017,1.017,0,0,1,1.253,0L57.894,60H6.105ZM48.765,4.423l5.176,19.319-1.932.517L46.833,4.941ZM31,15.4l2.07,7.728-5.8,1.553A4,4,0,0,1,25.2,16.948Zm1.622,9.918,1.812,6.762a1,1,0,0,1-.707,1.224h0a1,1,0,0,1-1.224-.707l-1.812-6.761Zm2.46-2.412-2.229-8.32L45.016,5.886l4.947,18.463ZM31.345,4.886a1,1,0,0,1,1.314,0l4.69,4.019-6.078,4.344-6.35,1.7a6.165,6.165,0,0,0-4.595,6.887,6,6,0,0,0,7.466,4.767l.966-.258,1.785,6.663a3.137,3.137,0,0,0,.972,1.6,3,3,0,0,0,2.728.615h0A3,3,0,0,0,36.3,33.322a3.143,3.143,0,0,0,.035-1.869L34.57,24.861l16.454,1.6a1.98,1.98,0,0,0,.711-.058l2.724-.73a1.986,1.986,0,0,0,1.217-.941l3.639,3.131L40.127,43.222l-6.255-5.005a3,3,0,0,0-3.747,0l-6.247,5L4.684,27.863Z"/><path d="M55.216,13.047a1,1,0,0,0,.966.742.972.972,0,0,0,.259-.035l3.864-1.035a1,1,0,1,0-.518-1.932l-3.864,1.036A1,1,0,0,0,55.216,13.047Z"/><path d="M54.042,8.15a1,1,0,0,0,.708-.293l2.828-2.828a1,1,0,1,0-1.414-1.414L53.335,6.443a1,1,0,0,0,.707,1.707Z"/><path d="M56.182,18.482a1,1,0,0,0,.707,1.225l3.864,1.035a.972.972,0,0,0,.259.035,1,1,0,0,0,.259-1.966l-3.864-1.036A1,1,0,0,0,56.182,18.482Z"/></g></svg>
